solid OpenSCAD_Model
  facet normal -0.104528 0.994522 0
    outer loop
      vertex -38.9896 -1.29096 -5
      vertex -38.9896 -1.29096 5
      vertex -38.95 -1.28679 -5
    endloop
  endfacet
  facet normal -0.104528 0.994522 0
    outer loop
      vertex -38.95 -1.28679 -5
      vertex -38.9896 -1.29096 5
      vertex -38.95 -1.28679 5
    endloop
  endfacet
  facet normal -0.994522 -0.104528 0
    outer loop
      vertex -38.9896 -1.29096 -5
      vertex -38.95 -1.66807 -5
      vertex -38.9896 -1.29096 5
    endloop
  endfacet
  facet normal -0.994522 -0.104528 0
    outer loop
      vertex -38.9896 -1.29096 5
      vertex -38.95 -1.66807 -5
      vertex -38.95 -1.66807 5
    endloop
  endfacet
  facet normal 0 0 -1
    outer loop
      vertex -38.9896 -1.29096 -5
      vertex -38.95 -1.28679 -5
      vertex -38.95 -1.66807 -5
    endloop
  endfacet
  facet normal 0 0 -1
    outer loop
      vertex -32.5 2 -5
      vertex -38.95 -1.28679 -5
      vertex -38.95 2 -5
    endloop
  endfacet
  facet normal 0 0 -1
    outer loop
      vertex -38.95 -1.66807 -5
      vertex -38.95 -1.28679 -5
      vertex -32.5 2 -5
    endloop
  endfacet
  facet normal 0 0 -1
    outer loop
      vertex 32.5 23.5 -5
      vertex -32.5 2 -5
      vertex -32.5 23.5 -5
    endloop
  endfacet
  facet normal 0 0 -1
    outer loop
      vertex -38.95 -1.66807 -5
      vertex -32.5 2 -5
      vertex 32.5 23.5 -5
    endloop
  endfacet
  facet normal 0 0 -1
    outer loop
      vertex -38.95 -1.66807 -5
      vertex 32.5 23.5 -5
      vertex 32.5 2 -5
    endloop
  endfacet
  facet normal 0 0 -1
    outer loop
      vertex -38.95 -1.66807 -5
      vertex 32.5 2 -5
      vertex 38.95 2 -5
    endloop
  endfacet
  facet normal 0 0 -1
    outer loop
      vertex -38.95 -1.66807 -5
      vertex 38.95 2 -5
      vertex 38.95 -1.28679 -5
    endloop
  endfacet
  facet normal 0 0 -1
    outer loop
      vertex -38.95 -1.66807 -5
      vertex 38.95 -1.28679 -5
      vertex 38.9896 -1.29096 -5
    endloop
  endfacet
  facet normal 0 0 -1
    outer loop
      vertex -38.95 -1.66807 -5
      vertex 38.9896 -1.29096 -5
      vertex 38.95 -1.66807 -5
    endloop
  endfacet
  facet normal 0 0 -1
    outer loop
      vertex -38.95 -1.66807 -5
      vertex 38.95 -1.66807 -5
      vertex 38.95 -2 -5
    endloop
  endfacet
  facet normal 0 0 -1
    outer loop
      vertex -38.95 -1.66807 -5
      vertex 38.95 -2 -5
      vertex 38.9151 -2 -5
    endloop
  endfacet
  facet normal 0 0 -1
    outer loop
      vertex 35.6954 -13.5 -5
      vertex 38.9151 -2 -5
      vertex 37.6 -14.5125 -5
    endloop
  endfacet
  facet normal 0 0 -1
    outer loop
      vertex -36.9041 -2 -5
      vertex -38.95 -1.66807 -5
      vertex 36.9041 -2 -5
    endloop
  endfacet
  facet normal 0 0 -1
    outer loop
      vertex 36.9041 -2 -5
      vertex 38.9151 -2 -5
      vertex 35.6954 -13.5 -5
    endloop
  endfacet
  facet normal 0 0 -1
    outer loop
      vertex 34.6 -13.5 -5
      vertex 35.6954 -13.5 -5
      vertex 37.6 -14.5125 -5
    endloop
  endfacet
  facet normal 0 0 -1
    outer loop
      vertex -38.95 -1.66807 -5
      vertex 38.9151 -2 -5
      vertex 36.9041 -2 -5
    endloop
  endfacet
  facet normal 0 0 -1
    outer loop
      vertex -35.6954 -13.5 -5
      vertex -38.95 -1.66807 -5
      vertex -36.9041 -2 -5
    endloop
  endfacet
  facet normal 0 0 -1
    outer loop
      vertex 34.6 -13.5 -5
      vertex 37.6 -14.5125 -5
      vertex 37.6 -15.5 -5
    endloop
  endfacet
  facet normal 0 0 -1
    outer loop
      vertex -34.6 -15.5 -5
      vertex -35.6954 -13.5 -5
      vertex -34.6 -13.5 -5
    endloop
  endfacet
  facet normal 0 0 -1
    outer loop
      vertex -38.95 -2 -5
      vertex -38.95 -1.66807 -5
      vertex -38.9151 -2 -5
    endloop
  endfacet
  facet normal 0 0 -1
    outer loop
      vertex -35.6954 -13.5 -5
      vertex -34.6 -15.5 -5
      vertex -37.6 -15.5 -5
    endloop
  endfacet
  facet normal 0 0 -1
    outer loop
      vertex -35.6954 -13.5 -5
      vertex -37.6 -15.5 -5
      vertex -37.6 -14.5125 -5
    endloop
  endfacet
  facet normal 0 0 -1
    outer loop
      vertex -35.6954 -13.5 -5
      vertex -38.9151 -2 -5
      vertex -38.95 -1.66807 -5
    endloop
  endfacet
  facet normal 0 0 -1
    outer loop
      vertex -37.6 -14.5125 -5
      vertex -38.9151 -2 -5
      vertex -35.6954 -13.5 -5
    endloop
  endfacet
  facet normal 0 0 -1
    outer loop
      vertex 34.6 -13.5 -5
      vertex 37.6 -15.5 -5
      vertex 34.6 -15.5 -5
    endloop
  endfacet
  facet normal -1 0 0
    outer loop
      vertex -38.95 -1.28679 -5
      vertex -38.95 -1.28679 5
      vertex -38.95 2 -5
    endloop
  endfacet
  facet normal -1 0 0
    outer loop
      vertex -38.95 2 -5
      vertex -38.95 -1.28679 5
      vertex -38.95 2 5
    endloop
  endfacet
  facet normal 0 0 1
    outer loop
      vertex -38.95 -1.28679 5
      vertex -38.9896 -1.29096 5
      vertex -38.95 -1.66807 5
    endloop
  endfacet
  facet normal 0 0 1
    outer loop
      vertex -38.9151 -2 5
      vertex -38.95 -1.28679 5
      vertex -38.95 -1.66807 5
    endloop
  endfacet
  facet normal 0 0 1
    outer loop
      vertex -38.95 -2 5
      vertex -38.9151 -2 5
      vertex -38.95 -1.66807 5
    endloop
  endfacet
  facet normal 0 0 1
    outer loop
      vertex -36.9041 -2 5
      vertex 36.9041 -2 5
      vertex -38.95 -1.28679 5
    endloop
  endfacet
  facet normal 0 0 1
    outer loop
      vertex -38.9151 -2 5
      vertex -37.6 -14.5125 5
      vertex -38.95 -1.28679 5
    endloop
  endfacet
  facet normal 0 0 1
    outer loop
      vertex -37.6 -15.5 5
      vertex -34.6 -15.5 5
      vertex -37.6 -14.5125 5
    endloop
  endfacet
  facet normal 0 0 1
    outer loop
      vertex -35.6954 -13.5 5
      vertex -36.9041 -2 5
      vertex -38.95 -1.28679 5
    endloop
  endfacet
  facet normal 0 0 1
    outer loop
      vertex 35.6954 -13.5 5
      vertex 37.6 -15.5 5
      vertex 36.9041 -2 5
    endloop
  endfacet
  facet normal 0 0 1
    outer loop
      vertex -37.6 -14.5125 5
      vertex -35.6954 -13.5 5
      vertex -38.95 -1.28679 5
    endloop
  endfacet
  facet normal 0 0 1
    outer loop
      vertex -37.6 -14.5125 5
      vertex -34.6 -15.5 5
      vertex -35.6954 -13.5 5
    endloop
  endfacet
  facet normal 0 0 1
    outer loop
      vertex 36.9041 -2 5
      vertex 38.9151 -2 5
      vertex -38.95 -1.28679 5
    endloop
  endfacet
  facet normal 0 0 1
    outer loop
      vertex 37.6 -14.5125 5
      vertex 38.9151 -2 5
      vertex 36.9041 -2 5
    endloop
  endfacet
  facet normal 0 0 1
    outer loop
      vertex 34.6 -15.5 5
      vertex 37.6 -15.5 5
      vertex 35.6954 -13.5 5
    endloop
  endfacet
  facet normal 0 0 1
    outer loop
      vertex 37.6 -15.5 5
      vertex 37.6 -14.5125 5
      vertex 36.9041 -2 5
    endloop
  endfacet
  facet normal 0 0 1
    outer loop
      vertex 38.95 -1.66807 5
      vertex 38.9896 -1.29096 5
      vertex -38.95 -1.28679 5
    endloop
  endfacet
  facet normal 0 0 1
    outer loop
      vertex 38.9151 -2 5
      vertex 38.95 -2 5
      vertex -38.95 -1.28679 5
    endloop
  endfacet
  facet normal 0 0 1
    outer loop
      vertex 38.95 -2 5
      vertex 38.95 -1.66807 5
      vertex -38.95 -1.28679 5
    endloop
  endfacet
  facet normal 0 0 1
    outer loop
      vertex 38.95 -1.28679 5
      vertex 38.95 2 5
      vertex -38.95 -1.28679 5
    endloop
  endfacet
  facet normal 0 0 1
    outer loop
      vertex 38.9896 -1.29096 5
      vertex 38.95 -1.28679 5
      vertex -38.95 -1.28679 5
    endloop
  endfacet
  facet normal 0 0 1
    outer loop
      vertex 38.95 2 5
      vertex -38.95 2 5
      vertex -38.95 -1.28679 5
    endloop
  endfacet
  facet normal 0 0 1
    outer loop
      vertex 34.6 -13.5 5
      vertex 34.6 -15.5 5
      vertex 35.6954 -13.5 5
    endloop
  endfacet
  facet normal 0 0 1
    outer loop
      vertex -34.6 -13.5 5
      vertex -35.6954 -13.5 5
      vertex -34.6 -15.5 5
    endloop
  endfacet
  facet normal -1 0 0
    outer loop
      vertex -38.95 -2 -5
      vertex -38.95 -2 5
      vertex -38.95 -1.66807 -5
    endloop
  endfacet
  facet normal -1 0 0
    outer loop
      vertex -38.95 -1.66807 -5
      vertex -38.95 -2 5
      vertex -38.95 -1.66807 5
    endloop
  endfacet
  facet normal 0 -1 0
    outer loop
      vertex -38.95 -2 5
      vertex -38.95 -2 -5
      vertex -38.9151 -2 -5
    endloop
  endfacet
  facet normal 0 -1 0
    outer loop
      vertex -38.9151 -2 5
      vertex -38.95 -2 5
      vertex -38.9151 -2 -5
    endloop
  endfacet
  facet normal -0.994522 -0.104528 0
    outer loop
      vertex -38.9151 -2 -5
      vertex -37.6 -14.5125 -5
      vertex -38.9151 -2 5
    endloop
  endfacet
  facet normal -0.994522 -0.104528 0
    outer loop
      vertex -38.9151 -2 5
      vertex -37.6 -14.5125 -5
      vertex -37.6 -14.5125 5
    endloop
  endfacet
  facet normal -1 0 0
    outer loop
      vertex -37.6 -15.5 -5
      vertex -37.6 -15.5 5
      vertex -37.6 -14.5125 -5
    endloop
  endfacet
  facet normal -1 0 0
    outer loop
      vertex -37.6 -14.5125 -5
      vertex -37.6 -15.5 5
      vertex -37.6 -14.5125 5
    endloop
  endfacet
  facet normal 0 -1 0
    outer loop
      vertex -37.6 -15.5 5
      vertex -37.6 -15.5 -5
      vertex -34.6 -15.5 -5
    endloop
  endfacet
  facet normal 0 -1 0
    outer loop
      vertex -34.6 -15.5 5
      vertex -37.6 -15.5 5
      vertex -34.6 -15.5 -5
    endloop
  endfacet
  facet normal 1 0 0
    outer loop
      vertex -34.6 -15.5 5
      vertex -34.6 -15.5 -5
      vertex -34.6 -13.5 -5
    endloop
  endfacet
  facet normal 1 0 0
    outer loop
      vertex -34.6 -13.5 5
      vertex -34.6 -15.5 5
      vertex -34.6 -13.5 -5
    endloop
  endfacet
  facet normal 0 1 0
    outer loop
      vertex -35.6954 -13.5 -5
      vertex -35.6954 -13.5 5
      vertex -34.6 -13.5 -5
    endloop
  endfacet
  facet normal 0 1 0
    outer loop
      vertex -34.6 -13.5 -5
      vertex -35.6954 -13.5 5
      vertex -34.6 -13.5 5
    endloop
  endfacet
  facet normal 0.994522 0.104528 0
    outer loop
      vertex -35.6954 -13.5 -5
      vertex -36.9041 -2 -5
      vertex -36.9041 -2 5
    endloop
  endfacet
  facet normal 0.994522 0.104528 0
    outer loop
      vertex -35.6954 -13.5 5
      vertex -35.6954 -13.5 -5
      vertex -36.9041 -2 5
    endloop
  endfacet
  facet normal 0 -1 0
    outer loop
      vertex -36.9041 -2 5
      vertex -36.9041 -2 -5
      vertex 36.9041 -2 -5
    endloop
  endfacet
  facet normal 0 -1 0
    outer loop
      vertex 36.9041 -2 5
      vertex -36.9041 -2 5
      vertex 36.9041 -2 -5
    endloop
  endfacet
  facet normal -0.994522 0.104528 0
    outer loop
      vertex 35.6954 -13.5 -5
      vertex 35.6954 -13.5 5
      vertex 36.9041 -2 -5
    endloop
  endfacet
  facet normal -0.994522 0.104528 0
    outer loop
      vertex 36.9041 -2 -5
      vertex 35.6954 -13.5 5
      vertex 36.9041 -2 5
    endloop
  endfacet
  facet normal 0 1 0
    outer loop
      vertex 34.6 -13.5 -5
      vertex 34.6 -13.5 5
      vertex 35.6954 -13.5 -5
    endloop
  endfacet
  facet normal 0 1 0
    outer loop
      vertex 35.6954 -13.5 -5
      vertex 34.6 -13.5 5
      vertex 35.6954 -13.5 5
    endloop
  endfacet
  facet normal -1 0 0
    outer loop
      vertex 34.6 -15.5 -5
      vertex 34.6 -15.5 5
      vertex 34.6 -13.5 -5
    endloop
  endfacet
  facet normal -1 0 0
    outer loop
      vertex 34.6 -13.5 -5
      vertex 34.6 -15.5 5
      vertex 34.6 -13.5 5
    endloop
  endfacet
  facet normal 0 -1 0
    outer loop
      vertex 34.6 -15.5 5
      vertex 34.6 -15.5 -5
      vertex 37.6 -15.5 -5
    endloop
  endfacet
  facet normal 0 -1 0
    outer loop
      vertex 37.6 -15.5 5
      vertex 34.6 -15.5 5
      vertex 37.6 -15.5 -5
    endloop
  endfacet
  facet normal 1 0 0
    outer loop
      vertex 37.6 -15.5 5
      vertex 37.6 -15.5 -5
      vertex 37.6 -14.5125 -5
    endloop
  endfacet
  facet normal 1 0 0
    outer loop
      vertex 37.6 -14.5125 5
      vertex 37.6 -15.5 5
      vertex 37.6 -14.5125 -5
    endloop
  endfacet
  facet normal 0.994522 -0.104528 0
    outer loop
      vertex 37.6 -14.5125 5
      vertex 37.6 -14.5125 -5
      vertex 38.9151 -2 -5
    endloop
  endfacet
  facet normal 0.994522 -0.104528 0
    outer loop
      vertex 38.9151 -2 5
      vertex 37.6 -14.5125 5
      vertex 38.9151 -2 -5
    endloop
  endfacet
  facet normal 0 -1 0
    outer loop
      vertex 38.9151 -2 5
      vertex 38.9151 -2 -5
      vertex 38.95 -2 -5
    endloop
  endfacet
  facet normal 0 -1 0
    outer loop
      vertex 38.95 -2 5
      vertex 38.9151 -2 5
      vertex 38.95 -2 -5
    endloop
  endfacet
  facet normal 1 0 0
    outer loop
      vertex 38.95 -2 5
      vertex 38.95 -2 -5
      vertex 38.95 -1.66807 -5
    endloop
  endfacet
  facet normal 1 0 0
    outer loop
      vertex 38.95 -1.66807 5
      vertex 38.95 -2 5
      vertex 38.95 -1.66807 -5
    endloop
  endfacet
  facet normal 0.994522 -0.104528 0
    outer loop
      vertex 38.95 -1.66807 5
      vertex 38.95 -1.66807 -5
      vertex 38.9896 -1.29096 -5
    endloop
  endfacet
  facet normal 0.994522 -0.104528 0
    outer loop
      vertex 38.9896 -1.29096 5
      vertex 38.95 -1.66807 5
      vertex 38.9896 -1.29096 -5
    endloop
  endfacet
  facet normal 0.104528 0.994522 0
    outer loop
      vertex 38.95 -1.28679 -5
      vertex 38.95 -1.28679 5
      vertex 38.9896 -1.29096 -5
    endloop
  endfacet
  facet normal 0.104528 0.994522 0
    outer loop
      vertex 38.9896 -1.29096 -5
      vertex 38.95 -1.28679 5
      vertex 38.9896 -1.29096 5
    endloop
  endfacet
  facet normal 1 0 0
    outer loop
      vertex 38.95 -1.28679 5
      vertex 38.95 -1.28679 -5
      vertex 38.95 2 -5
    endloop
  endfacet
  facet normal 1 0 0
    outer loop
      vertex 38.95 2 5
      vertex 38.95 -1.28679 5
      vertex 38.95 2 -5
    endloop
  endfacet
  facet normal 0 1 0
    outer loop
      vertex -38.95 2 -5
      vertex -38.95 2 5
      vertex -32.5 2 -5
    endloop
  endfacet
  facet normal 0 1 0
    outer loop
      vertex -32.5 2 -1.2
      vertex -38.95 2 5
      vertex 38.95 2 5
    endloop
  endfacet
  facet normal 0 1 0
    outer loop
      vertex 32.5 2 -5
      vertex 38.95 2 5
      vertex 38.95 2 -5
    endloop
  endfacet
  facet normal 0 1 0
    outer loop
      vertex 32.5 2 -1.2
      vertex 38.95 2 5
      vertex 32.5 2 -5
    endloop
  endfacet
  facet normal 0 1 0
    outer loop
      vertex -32.5 2 -5
      vertex -38.95 2 5
      vertex -32.5 2 -1.2
    endloop
  endfacet
  facet normal 0 1 0
    outer loop
      vertex -32.5 2 -1.2
      vertex 38.95 2 5
      vertex 32.5 2 -1.2
    endloop
  endfacet
  facet normal 1 0 0
    outer loop
      vertex 32.5 2 -1.2
      vertex 32.5 2 -5
      vertex 32.5 23.5 -5
    endloop
  endfacet
  facet normal 1 0 0
    outer loop
      vertex 32.5 23.5 -1.2
      vertex 32.5 2 -1.2
      vertex 32.5 23.5 -5
    endloop
  endfacet
  facet normal 0 1 0
    outer loop
      vertex -32.5 23.5 -5
      vertex -32.5 23.5 -1.2
      vertex 32.5 23.5 -5
    endloop
  endfacet
  facet normal 0 1 0
    outer loop
      vertex 32.5 23.5 -5
      vertex -32.5 23.5 -1.2
      vertex 32.5 23.5 -1.2
    endloop
  endfacet
  facet normal -1 0 0
    outer loop
      vertex -32.5 2 -5
      vertex -32.5 2 -1.2
      vertex -32.5 23.5 -5
    endloop
  endfacet
  facet normal -1 0 0
    outer loop
      vertex -32.5 23.5 -5
      vertex -32.5 2 -1.2
      vertex -32.5 23.5 -1.2
    endloop
  endfacet
  facet normal 0 0 1
    outer loop
      vertex -32.5 23.5 -1.2
      vertex -32.5 2 -1.2
      vertex 32.5 2 -1.2
    endloop
  endfacet
  facet normal 0 0 1
    outer loop
      vertex 32.5 23.5 -1.2
      vertex -32.5 23.5 -1.2
      vertex 32.5 2 -1.2
    endloop
  endfacet
endsolid OpenSCAD_Model
